<?xml version="1.0" encoding="UTF-8"?>
<!DOCTYPE svg PUBLIC "-//W3C//DTD SVG 1.1//EN" "http://www.w3.org/Graphics/SVG/1.1/DTD/svg11.dtd">
<!-- Creator: CorelDRAW -->
<svg xmlns="http://www.w3.org/2000/svg" xml:space="preserve" width="2000px" height="2000px" version="1.1" shape-rendering="geometricPrecision" text-rendering="geometricPrecision" image-rendering="optimizeQuality" fill-rule="evenodd" clip-rule="evenodd"
viewBox="0 0 2000 2000"
 xmlns:xlink="http://www.w3.org/1999/xlink"
 xmlns:xodm="http://www.corel.com/coreldraw/odm/2003">
 <g id="Layer_x0020_1">
  <metadata id="CorelCorpID_0Corel-Layer"/>
  <g id="_2384052683136">
   <rect fill="#FEFEFE" width="2000" height="2000" rx="213.78" ry="213.78"/>
   <rect fill="#336699" x="80.16" y="80.16" width="1839.68" height="1839.68" rx="97.83" ry="133.62"/>
   <path fill="#1F4F80" d="M828.4 803.17l-629.58 -722.17c-66.52,7.5 -118.66,64.34 -118.66,132.78l0 1572.44c0,73.49 60.13,133.62 133.62,133.62l1572.44 0c5.06,0 10.05,-0.29 14.96,-0.84l-601.93 -690.45 -370.85 -425.38z"/>
   <path fill="#FEFEFE" d="M397.09 405.86l5.61 0 69.88 80.15 -75.49 0c-41.06,0 -74.66,33.6 -74.66,74.67l0 878.64c0,41.07 33.6,74.67 74.66,74.67l971.68 0 69.88 80.15 -1041.56 0c-85.15,0 -154.82,-69.66 -154.82,-154.82l0 -878.64c0,-85.16 69.67,-154.82 154.82,-154.82zm164.26 0l1041.56 0c85.15,0 154.82,69.66 154.82,154.82l0 878.64c0,85.16 -69.67,154.82 -154.82,154.82l-5.61 0 -69.88 -80.15 75.49 0c41.06,0 74.66,-33.6 74.66,-74.67l0 -878.64c0,-41.07 -33.6,-74.67 -74.66,-74.67l-971.67 0 -69.89 -80.15z"/>
   <polygon fill="#FEFEFE" points="1219.25,857.83 1542.45,1228.55 1289.12,1228.55 1219.23,1148.39 1366.22,1148.39 1219.26,979.81 1145.76,1064.12 1092.59,1003.12 "/>
   <path fill="#FEFEFE" d="M856.05 771.45l199.24 228.55 199.25 228.55 -398.49 0 -398.5 0 199.25 -228.55 199.25 -228.55zm0 121.99l-222.27 254.95 444.53 0 -222.26 -254.95z"/>
   <circle fill="#FEFEFE" cx="1435.67" cy="727.92" r="85.61"/>
  </g>
 </g>
</svg>
